<svg xmlns="http://www.w3.org/2000/svg" xmlns:xlink="http://www.w3.org/1999/xlink" width="640" height="640"><rect width="100%" height="100%" fill="none"/><defs><path d="M83.72 380l40.46-84.72 40.09 80.87 40.84-80.87L245.57 380h13.49l-53.95-112.96-40.46 84.72-40.47-84.72L70.24 380h13.48z" id="a"/><path d="M203.02 262.25l13.63.3 6.69-13.8-13.52-.32 29-61.05 85.68-.46 6.74-13.91-162.73.61-6.59 13.63 63.5-.29-66.5 145.3 5.92 11.6 38.18-81.61z" id="c"/><path d="M156.78 172.32L61 379V172.32h95.78z" id="d"/><path d="M350.91 379h-66.48l-19.8 1 86.21-206 .07 205z" id="e"/></defs><g class="currentLayer"><g><use xlink:href="#a" fill="#fff" y="-50.27" x="54.829" transform="matrix(2.1409 0 0 2.7853 -238.312 -309.168)"/><use xlink:href="#a" fill-opacity="0" stroke="#fff" y="-50.27" x="54.829" transform="matrix(2.1409 0 0 2.7853 -238.312 -309.168)"/><use xlink:href="#b" fill="#fff" y="-50.27" x="54.829" transform="matrix(2.1409 0 0 2.7853 -238.312 -309.168)"/><use xlink:href="#b" fill-opacity="0" stroke="#fff" y="-50.27" x="54.829" transform="matrix(2.1409 0 0 2.7853 -238.312 -309.168)"/><use xlink:href="#c" fill="#fff" y="-50.27" x="54.829" transform="matrix(2.1409 0 0 2.7853 -238.312 -309.168)"/><use xlink:href="#c" fill-opacity="0" stroke="#fff" y="-50.27" x="54.829" transform="matrix(2.1409 0 0 2.7853 -238.312 -309.168)"/><g><use xlink:href="#d" fill="#fff" y="-50.27" x="54.829" transform="matrix(2.1409 0 0 2.7853 -238.312 -309.168)"/><use xlink:href="#d" fill-opacity="0" stroke="#fff" y="-50.27" x="54.829" transform="matrix(2.1409 0 0 2.7853 -238.312 -309.168)"/></g><g><use xlink:href="#e" fill="#fff" y="-50.27" x="54.829" transform="matrix(2.1409 0 0 2.7853 -238.312 -309.168)"/><use xlink:href="#e" fill-opacity="0" stroke="#fff" y="-50.27" x="54.829" transform="matrix(2.1409 0 0 2.7853 -238.312 -309.168)"/></g></g></g></svg>